<svg width="25" height="25" viewBox="0 0 25 25" fill="none" xmlns="http://www.w3.org/2000/svg">
<g clip-path="url(#clip0_91_67)">
<path d="M12.6046 17.1269C15.387 17.1269 17.6426 14.8716 17.6426 12.0896C17.6426 9.30753 15.387 7.05225 12.6046 7.05225C9.82214 7.05225 7.56654 9.30753 7.56654 12.0896C7.56654 14.8716 9.82214 17.1269 12.6046 17.1269Z" stroke="#363131" stroke-width="2" stroke-linecap="round" stroke-linejoin="round"/>
<path d="M12.6046 1.00745V3.02237" stroke="#363131" stroke-width="2" stroke-linecap="round" stroke-linejoin="round"/>
<path d="M12.6046 21.1567V23.1717" stroke="#363131" stroke-width="2" stroke-linecap="round" stroke-linejoin="round"/>
<path d="M4.7654 4.25146L6.19619 5.68206" stroke="#363131" stroke-width="2" stroke-linecap="round" stroke-linejoin="round"/>
<path d="M19.0129 18.497L20.4437 19.9276" stroke="#363131" stroke-width="2" stroke-linecap="round" stroke-linejoin="round"/>
<path d="M1.5209 12.0895H3.53611" stroke="#363131" stroke-width="2" stroke-linecap="round" stroke-linejoin="round"/>
<path d="M21.673 12.0895H23.6882" stroke="#363131" stroke-width="2" stroke-linecap="round" stroke-linejoin="round"/>
<path d="M4.7654 19.9276L6.19619 18.497" stroke="#363131" stroke-width="2" stroke-linecap="round" stroke-linejoin="round"/>
<path d="M19.0129 5.68206L20.4437 4.25146" stroke="#363131" stroke-width="2" stroke-linecap="round" stroke-linejoin="round"/>
</g>
<defs>
<clipPath id="clip0_91_67">
<rect x="0.513306" width="24.1825" height="24.1791" rx="10" fill="white"/>
</clipPath>
</defs>
</svg>
